<?xml version="1.0" encoding="utf-8"?>
<!-- Generator: Adobe Illustrator 19.2.0, SVG Export Plug-In . SVG Version: 6.00 Build 0)  -->
<svg version="1.1" id="Layer_1" xmlns="http://www.w3.org/2000/svg" xmlns:xlink="http://www.w3.org/1999/xlink" x="0px" y="0px"
	 viewBox="0 0 90 23" style="enable-background:new 0 0 90 23;" xml:space="preserve">
<style type="text/css">
	.st0{fill:none;stroke:#201600;stroke-miterlimit:10;}
	.st1{fill:#89C8DA;stroke:#201600;stroke-miterlimit:10;}
	.st2{fill:#D86594;stroke:#201600;stroke-miterlimit:10;}
	.st3{fill:#5DAF61;stroke:#201600;stroke-miterlimit:10;}
	.st4{fill:#9A7BB4;stroke:#201600;stroke-miterlimit:10;}
	.st5{fill:#C94D48;stroke:#201600;stroke-miterlimit:10;}
	.st6{fill:#E3E450;stroke:#201600;stroke-miterlimit:10;}
</style>
<path class="st0" d="M23.5,17.7c2.6,0.5,3.1,1.7,1.3,1.6c-1,0-2.1-0.3-4.6-0.1c-2.2,0.2-2.5,0.8-2.3,1.5c0.4,1.5,4.5-0.7,5,1.2"/>
<line class="st0" x1="18.4" y1="11.7" x2="13.8" y2="10.8"/>
<line class="st0" x1="25.2" y1="12.2" x2="29.6" y2="11"/>
<line class="st0" x1="25" y1="13.9" x2="28.9" y2="15.5"/>
<line class="st0" x1="25" y1="12.9" x2="29.9" y2="13.4"/>
<line class="st0" x1="13.8" y1="13.3" x2="18.4" y2="12.6"/>
<line class="st0" x1="15.1" y1="15.4" x2="18.2" y2="13.8"/>
<path class="st0" d="M25.3,7.3c1.4-1.6,2.5-1.2,2.9-1.1l-1.6,3.4"/>
<path class="st1" d="M21.4,18c2.4,0,4.3-1.4,5.1-3.6c0.5-1.3,0.5-2.8,0.2-4.3c-0.4-1.8-1.9-4-4.8-4.1c-2.3-0.1-4.1,0.9-5.1,3
	c-0.7,1.4-0.8,2.9-0.4,4.7c0.2,0.9,0.6,1.7,1.2,2.5C18.5,17.4,19.7,18,21.4,18L21.4,18z"/>
<path class="st0" d="M14.9,31.8"/>
<path class="st0" d="M16.2,29.4"/>
<path class="st0" d="M18,7c-1-1.2-2.9-1.1-2.9-1.1l1.6,3.4"/>
<path class="st0" d="M18.3,14.9c1.4,0.3,2.5,0.8,2.8,0c0.1-0.3,0-1-0.1-1.5c0-0.2,1.4-0.4,1.3-0.1c0,0.1-0.1,0.3-0.1,0.4
	c-0.2,0.8-0.1,1.2-0.1,1.2c0,1.3,3,0,3,0"/>
<path class="st2" d="M43.1,18.1c-0.8,0-1.4-0.1-2-0.4c-1.6-0.6-2.6-1.8-3-3.5c-0.5-1.8-0.4-3.4,0.3-5c0.7-1.8,2-2.8,3.7-3.2
	c1.6-0.3,2.9-0.1,4,0.6c1,0.6,1.7,1.5,2.1,2.8c0.3,0.8,0.4,1.7,0.4,2.7c0,0,0,0,0,0.1l0,0l0,0h-7.9c0,1.1,0.1,2.1,1,2.9
	c0.6,0.6,1.5,0.8,2.3,0.6c0.9-0.2,1.6-0.8,1.9-1.6c0,0,0-0.1,0.1-0.1v-0.1l2.4,0.3l0,0c-0.1,0.5-0.4,1-0.6,1.4
	c-0.9,1.3-2.2,2.1-3.9,2.2C43.6,18,43.3,18.1,43.1,18.1z"/>
<path class="st0" d="M20.9,11.1c-0.1-0.9-1.6-2.5-3.3-1.1"/>
<path class="st0" d="M22.2,11.1c0.1-0.8,1.6-2.4,3.4-1.1"/>
<path class="st0" d="M45.5,10.9h-4.1c-0.2,0-0.5-0.1-0.6-0.3s-0.2-0.4-0.1-0.7C41,8.8,41.6,8,42.6,7.7c0.8-0.2,1.7-0.1,2.3,0.3
	c0.7,0.4,1.2,1.2,1.3,2c0,0.2,0,0.4-0.2,0.6C46,10.8,45.7,10.9,45.5,10.9z M43.5,7.6c-0.3,0-0.6,0-0.9,0.1C41.7,8,41,8.8,40.7,9.9
	c0,0.2,0,0.4,0.1,0.6c0.1,0.2,0.3,0.3,0.6,0.3h4.1c0.2,0,0.4-0.1,0.6-0.3c0.1-0.2,0.2-0.4,0.2-0.6c-0.1-0.8-0.6-1.6-1.3-2
	C44.5,7.7,44,7.6,43.5,7.6z"/>
<path class="st0" d="M72.8,11h-4.1c-0.2,0-0.5-0.1-0.6-0.3C68,10.5,68,10.3,68,10c0.2-1.1,0.9-1.9,1.9-2.3c0.8-0.2,1.7-0.1,2.3,0.3
	c0.7,0.4,1.2,1.2,1.3,2c0,0.2,0,0.4-0.2,0.6C73.3,10.9,73.1,11,72.8,11z M70.8,7.7c-0.3,0-0.6,0-0.9,0.1C69,8.1,68.3,8.9,68,10
	c0,0.2,0,0.4,0.1,0.6c0.1,0.2,0.3,0.3,0.6,0.3h4.1c0.2,0,0.4-0.1,0.6-0.3c0.1-0.2,0.2-0.4,0.2-0.6c-0.1-0.8-0.6-1.6-1.3-2
	C71.8,7.8,71.3,7.7,70.8,7.7z"/>
<path id="_контур_x3E_" class="st3" d="M82,17.7c0.3,0,0.6,0,0.8,0c0.2,0,0.2-0.1,0.3-0.2C84,14.8,85,12,85.9,9.3l0.8-2.4
	c0-0.2,0.1-0.3,0.2-0.5L87,6.2c-0.1,0-0.3,0-0.5,0c-0.5,0-0.9,0-1.3,0l0,0c-0.1,0-0.2,0-0.2,0.2c-0.6,1.7-1.1,3.4-1.7,5.1l-0.4,1.1
	c-0.1,0.3-0.2,0.7-0.3,1l-0.2,0.6L82.3,14v-0.1l-0.4-1.3c-0.7-2-1.4-4.1-2.1-6.1c0-0.1-0.1-0.2-0.2-0.2c-0.6,0-1.1,0-1.7,0
	c-0.2,0-0.4,0-0.6,0h-0.2l0,0v0.1l1.5,4.4c0.8,2.2,1.6,4.5,2.3,6.8c0,0.1,0.1,0.1,0.2,0.1C81.4,17.7,81.7,17.7,82,17.7z"/>
<path class="st0" d="M70.4,18c-0.7,0-1.3-0.1-1.9-0.3c-1.4-0.5-2.4-1.5-2.9-2.9c-0.7-1.9-0.7-3.9,0.1-5.7c0.7-1.6,1.9-2.7,3.5-3
	C70,5.8,71,5.8,72,6s1.8,0.8,2.5,1.6c1.1,1.4,1.4,3.3,1.3,4.6l0,0h-7.9c0,0.1,0,0.2,0,0.3c0,0.2,0,0.4,0,0.7c0.1,0.8,0.4,1.5,0.9,2
	s1.6,0.8,2.4,0.6s1.5-0.7,1.8-1.5c0.1-0.3,0.2-0.3,0.5-0.3l0,0c0.5,0.1,0.9,0.1,1.4,0.2l0.7,0.1l0,0c0,0.1-0.1,0.2-0.1,0.3
	c-0.1,0.2-0.2,0.4-0.3,0.6c-0.8,1.5-2.1,2.4-3.8,2.6C71,18,70.7,18,70.4,18z"/>
<path class="st4" d="M50.9,17.8h0.2c0.4,0,0.9,0,1.3,0c1.1,0,2.2,0,3.3,0c0.7,0,1.3,0,1.8-0.1c2.1-0.3,3.7-1.3,4.9-3
	c0.8-1.3,1.2-2.7,1.3-4.4c0-2-0.4-3.7-1.4-5.1c-1.3-1.9-3.1-2.9-5.4-2.9c-1.4,0-2.7,0-4.1,0c-0.6,0-1.2,0-1.7,0H51l0,0L50.9,17.8
	L50.9,17.8z"/>
<path class="st5" d="M29.5,8.2h1.4v0.3c0,0.5,0,1,0,1.5c0,1.3,0,2.7,0,4.1c0,0.5,0,1,0.1,1.4c0.1,1,0.7,1.7,1.7,2.1
	c1.1,0.4,2.1,0.3,3.2,0v-2c-0.1,0-0.2,0-0.3,0c-0.3,0-0.5,0-0.8,0c-0.8,0-1.2-0.4-1.4-1.1c0-0.2,0-0.3,0-0.5c0-1.9,0-3.8,0-5.7l0,0
	c0,0,0,0,0-0.1l0,0l0,0h2.3v-2h-2.3V3l0,0c0,0,0,0-0.1,0c-0.2,0-0.4,0-0.6,0c-0.4,0-0.9,0.1-1.3,0.1c-0.1,0-0.1,0-0.1,0.1v0.1
	c-0.1,0.8-0.1,1.5-0.2,2.3c0,0.5-0.1,0.5-0.6,0.5h-1L29.5,8.2L29.5,8.2z"/>
<path class="st6" d="M8.9,10.3L9,10.4v0.1l0.5,1.1c0.9,2.1,1.8,4.3,2.6,6.4c0,0.1,0.1,0.2,0.3,0.2c0.6,0,1.3,0,1.9,0h0.9l0,0v-0.1
	l-0.3-0.7c-1.3-3.1-2.6-6.3-3.9-9.4c0-0.1-0.1-0.2,0-0.4c1-1.4,2-2.8,3-4.2l0.5-0.6c0,0,0-0.1,0.1-0.1l0,0h-0.8c-0.6,0-1.2,0-1.8,0
	c-0.1,0-0.2,0-0.3,0.1c-0.4,0.6-0.9,1.2-1.3,1.8C9.9,5.3,9.5,5.9,9,6.6c-0.8,1-1.5,2.1-2.3,3.1l-0.6,0.8c0,0.1-0.1,0.1-0.1,0.2
	c0,0,0,0.1-0.1,0.1l0,0H5.8V2.7H3.1v15.5h2.7v-1c0-0.9,0-1.8,0-2.7c0-0.1,0-0.3,0.1-0.4c0.6-0.8,1.2-1.7,1.8-2.5L8.1,11
	c0.1-0.2,0.3-0.4,0.4-0.5L8.9,10.3z"/>
<path class="st0" d="M53.4,15.6L53.4,15.6c0.3,0,0.6,0,0.9,0c0.6,0,1.3,0,1.9,0c0.4,0,0.8,0,1.1-0.1c1.2-0.2,2.2-0.9,2.9-2.2
	c0.5-0.9,0.7-1.9,0.7-3.1c0-1.4-0.2-2.6-0.8-3.7c-0.8-1.4-1.8-2.1-3.2-2.1c-0.8,0-1.6,0-2.4,0c-0.3,0-0.7,0-1,0c0,0,0,0-0.1,0l0,0
	V15.6L53.4,15.6z"/>
</svg>
